<mxfile host="app.diagrams.net" modified="2022-12-20T04:29:10.820Z" agent="5.0 (Windows NT 10.0; Win64; x64) AppleWebKit/537.36 (KHTML, like Gecko) Chrome/108.0.0.0 Safari/537.36" etag="R_Lr0uJv261Ccv-ROg9l" version="20.7.3" type="github">
  <diagram id="pqVG_PYFFwPOpTHJoqbJ" name="Page-1">
    <mxGraphModel dx="1114" dy="1659" grid="1" gridSize="10" guides="1" tooltips="1" connect="1" arrows="1" fold="1" page="1" pageScale="1" pageWidth="850" pageHeight="1100" math="0" shadow="0">
      <root>
        <mxCell id="0" />
        <mxCell id="1" parent="0" />
        <mxCell id="Ma1VwflC6FKAAwiPMdrL-1" value="Working flow of Supply-Chain Finance " style="rounded=1;whiteSpace=wrap;html=1;" parent="1" vertex="1">
          <mxGeometry x="490" y="-10" width="120" height="60" as="geometry" />
        </mxCell>
        <mxCell id="Ma1VwflC6FKAAwiPMdrL-10" style="edgeStyle=orthogonalEdgeStyle;rounded=0;orthogonalLoop=1;jettySize=auto;html=1;entryX=0;entryY=0.5;entryDx=0;entryDy=0;" parent="1" source="Ma1VwflC6FKAAwiPMdrL-2" target="Ma1VwflC6FKAAwiPMdrL-4" edge="1">
          <mxGeometry relative="1" as="geometry" />
        </mxCell>
        <mxCell id="Ma1VwflC6FKAAwiPMdrL-2" value="Supplier" style="whiteSpace=wrap;html=1;rounded=1;" parent="1" vertex="1">
          <mxGeometry y="200" width="120" height="60" as="geometry" />
        </mxCell>
        <mxCell id="Ma1VwflC6FKAAwiPMdrL-12" style="edgeStyle=orthogonalEdgeStyle;rounded=0;orthogonalLoop=1;jettySize=auto;html=1;entryX=0;entryY=0.5;entryDx=0;entryDy=0;" parent="1" source="Ma1VwflC6FKAAwiPMdrL-4" target="Ma1VwflC6FKAAwiPMdrL-7" edge="1">
          <mxGeometry relative="1" as="geometry">
            <Array as="points">
              <mxPoint x="300" y="170" />
              <mxPoint x="430" y="170" />
              <mxPoint x="430" y="130" />
            </Array>
          </mxGeometry>
        </mxCell>
        <mxCell id="Ma1VwflC6FKAAwiPMdrL-13" style="edgeStyle=orthogonalEdgeStyle;rounded=0;orthogonalLoop=1;jettySize=auto;html=1;entryX=0.167;entryY=0.25;entryDx=0;entryDy=0;entryPerimeter=0;" parent="1" source="Ma1VwflC6FKAAwiPMdrL-4" target="Ma1VwflC6FKAAwiPMdrL-8" edge="1">
          <mxGeometry relative="1" as="geometry">
            <Array as="points">
              <mxPoint x="520" y="240" />
            </Array>
          </mxGeometry>
        </mxCell>
        <mxCell id="Ma1VwflC6FKAAwiPMdrL-14" style="edgeStyle=orthogonalEdgeStyle;rounded=0;orthogonalLoop=1;jettySize=auto;html=1;entryX=0;entryY=0.75;entryDx=0;entryDy=0;" parent="1" source="Ma1VwflC6FKAAwiPMdrL-4" target="Ma1VwflC6FKAAwiPMdrL-9" edge="1">
          <mxGeometry relative="1" as="geometry">
            <Array as="points">
              <mxPoint x="300" y="375" />
            </Array>
          </mxGeometry>
        </mxCell>
        <mxCell id="Ma1VwflC6FKAAwiPMdrL-4" value="Manufacturer" style="whiteSpace=wrap;html=1;rounded=1;" parent="1" vertex="1">
          <mxGeometry x="240" y="190" width="120" height="70" as="geometry" />
        </mxCell>
        <mxCell id="Ma1VwflC6FKAAwiPMdrL-6" value="&lt;div&gt;Ultimate Customers&lt;/div&gt;&lt;div&gt;&lt;br&gt;&lt;/div&gt;" style="rounded=1;whiteSpace=wrap;html=1;" parent="1" vertex="1">
          <mxGeometry x="870" y="210" width="120" height="60" as="geometry" />
        </mxCell>
        <mxCell id="Ma1VwflC6FKAAwiPMdrL-15" style="edgeStyle=orthogonalEdgeStyle;rounded=0;orthogonalLoop=1;jettySize=auto;html=1;entryX=0;entryY=0.5;entryDx=0;entryDy=0;" parent="1" source="Ma1VwflC6FKAAwiPMdrL-7" target="Ma1VwflC6FKAAwiPMdrL-6" edge="1">
          <mxGeometry relative="1" as="geometry" />
        </mxCell>
        <mxCell id="Ma1VwflC6FKAAwiPMdrL-7" value="Distributor" style="rounded=1;whiteSpace=wrap;html=1;" parent="1" vertex="1">
          <mxGeometry x="500" y="100" width="120" height="60" as="geometry" />
        </mxCell>
        <mxCell id="Ma1VwflC6FKAAwiPMdrL-17" style="edgeStyle=orthogonalEdgeStyle;rounded=0;orthogonalLoop=1;jettySize=auto;html=1;" parent="1" source="Ma1VwflC6FKAAwiPMdrL-8" edge="1">
          <mxGeometry relative="1" as="geometry">
            <mxPoint x="870" y="240" as="targetPoint" />
          </mxGeometry>
        </mxCell>
        <mxCell id="Ma1VwflC6FKAAwiPMdrL-8" value="Retailor" style="rounded=1;whiteSpace=wrap;html=1;" parent="1" vertex="1">
          <mxGeometry x="500" y="210" width="120" height="60" as="geometry" />
        </mxCell>
        <mxCell id="Ma1VwflC6FKAAwiPMdrL-16" style="edgeStyle=orthogonalEdgeStyle;rounded=0;orthogonalLoop=1;jettySize=auto;html=1;" parent="1" source="Ma1VwflC6FKAAwiPMdrL-9" edge="1">
          <mxGeometry relative="1" as="geometry">
            <mxPoint x="860" y="240" as="targetPoint" />
            <Array as="points">
              <mxPoint x="860" y="330" />
            </Array>
          </mxGeometry>
        </mxCell>
        <mxCell id="Ma1VwflC6FKAAwiPMdrL-9" value="Supermarket" style="rounded=1;whiteSpace=wrap;html=1;" parent="1" vertex="1">
          <mxGeometry x="500" y="330" width="120" height="60" as="geometry" />
        </mxCell>
        <mxCell id="Ma1VwflC6FKAAwiPMdrL-18" value="Blockchain based DEFI Digram from transaction point of view " style="whiteSpace=wrap;html=1;" parent="1" vertex="1">
          <mxGeometry x="525" y="420" width="120" height="60" as="geometry" />
        </mxCell>
        <mxCell id="Ma1VwflC6FKAAwiPMdrL-19" value="Actor" style="shape=umlActor;verticalLabelPosition=bottom;verticalAlign=top;html=1;outlineConnect=0;" parent="1" vertex="1">
          <mxGeometry x="1120" y="580" width="30" height="60" as="geometry" />
        </mxCell>
        <mxCell id="Ma1VwflC6FKAAwiPMdrL-20" value="Customer/Importer" style="rounded=1;whiteSpace=wrap;html=1;" parent="1" vertex="1">
          <mxGeometry x="990" y="580" width="120" height="60" as="geometry" />
        </mxCell>
        <object label="" id="Ma1VwflC6FKAAwiPMdrL-27">
          <mxCell style="edgeStyle=orthogonalEdgeStyle;rounded=0;orthogonalLoop=1;jettySize=auto;html=1;entryX=0;entryY=0.5;entryDx=0;entryDy=0;startArrow=none;" parent="1" source="Ma1VwflC6FKAAwiPMdrL-28" target="Ma1VwflC6FKAAwiPMdrL-25" edge="1">
            <mxGeometry relative="1" as="geometry" />
          </mxCell>
        </object>
        <mxCell id="Ma1VwflC6FKAAwiPMdrL-21" value="Govt authority" style="rounded=1;whiteSpace=wrap;html=1;" parent="1" vertex="1">
          <mxGeometry x="20" y="580" width="120" height="60" as="geometry" />
        </mxCell>
        <mxCell id="Ma1VwflC6FKAAwiPMdrL-29" style="edgeStyle=orthogonalEdgeStyle;rounded=0;orthogonalLoop=1;jettySize=auto;html=1;" parent="1" source="Ma1VwflC6FKAAwiPMdrL-25" target="Ma1VwflC6FKAAwiPMdrL-26" edge="1">
          <mxGeometry relative="1" as="geometry">
            <Array as="points">
              <mxPoint x="380" y="850" />
              <mxPoint x="800" y="850" />
            </Array>
          </mxGeometry>
        </mxCell>
        <mxCell id="Ma1VwflC6FKAAwiPMdrL-25" value="Smart Contract " style="rounded=1;whiteSpace=wrap;html=1;" parent="1" vertex="1">
          <mxGeometry x="320" y="580" width="120" height="60" as="geometry" />
        </mxCell>
        <mxCell id="Ma1VwflC6FKAAwiPMdrL-31" style="edgeStyle=orthogonalEdgeStyle;rounded=0;orthogonalLoop=1;jettySize=auto;html=1;entryX=0;entryY=0.5;entryDx=0;entryDy=0;startArrow=none;" parent="1" source="Ma1VwflC6FKAAwiPMdrL-30" target="Ma1VwflC6FKAAwiPMdrL-20" edge="1">
          <mxGeometry relative="1" as="geometry" />
        </mxCell>
        <mxCell id="Ma1VwflC6FKAAwiPMdrL-26" value="Smart Contract " style="rounded=1;whiteSpace=wrap;html=1;" parent="1" vertex="1">
          <mxGeometry x="740" y="580" width="120" height="60" as="geometry" />
        </mxCell>
        <mxCell id="Ma1VwflC6FKAAwiPMdrL-32" value="Distributed ledger" style="whiteSpace=wrap;html=1;" parent="1" vertex="1">
          <mxGeometry x="520" y="730" width="120" height="60" as="geometry" />
        </mxCell>
        <mxCell id="Ma1VwflC6FKAAwiPMdrL-36" style="edgeStyle=orthogonalEdgeStyle;rounded=0;orthogonalLoop=1;jettySize=auto;html=1;" parent="1" source="Ma1VwflC6FKAAwiPMdrL-33" target="Ma1VwflC6FKAAwiPMdrL-25" edge="1">
          <mxGeometry relative="1" as="geometry" />
        </mxCell>
        <mxCell id="Ma1VwflC6FKAAwiPMdrL-37" style="edgeStyle=orthogonalEdgeStyle;rounded=0;orthogonalLoop=1;jettySize=auto;html=1;" parent="1" source="Ma1VwflC6FKAAwiPMdrL-33" target="Ma1VwflC6FKAAwiPMdrL-26" edge="1">
          <mxGeometry relative="1" as="geometry" />
        </mxCell>
        <mxCell id="Ma1VwflC6FKAAwiPMdrL-38" style="edgeStyle=orthogonalEdgeStyle;rounded=0;orthogonalLoop=1;jettySize=auto;html=1;" parent="1" source="Ma1VwflC6FKAAwiPMdrL-33" target="Ma1VwflC6FKAAwiPMdrL-32" edge="1">
          <mxGeometry relative="1" as="geometry" />
        </mxCell>
        <mxCell id="Ma1VwflC6FKAAwiPMdrL-33" value="&lt;div&gt;Supplychain &lt;br&gt;&lt;/div&gt;&lt;div&gt;Financer&lt;/div&gt;&lt;div&gt;Banking or financial institutions&lt;br&gt;&lt;/div&gt;" style="rounded=1;whiteSpace=wrap;html=1;" parent="1" vertex="1">
          <mxGeometry x="525" y="640" width="120" height="60" as="geometry" />
        </mxCell>
        <mxCell id="Ma1VwflC6FKAAwiPMdrL-30" value="&lt;div&gt;Customer can find the trace using blockchain &lt;br&gt;&lt;/div&gt;&lt;div&gt;&lt;br&gt;&lt;/div&gt;" style="text;html=1;strokeColor=none;fillColor=none;spacing=5;spacingTop=-20;whiteSpace=wrap;overflow=hidden;rounded=0;" parent="1" vertex="1">
          <mxGeometry x="860" y="650" width="190" height="20" as="geometry" />
        </mxCell>
        <mxCell id="Ma1VwflC6FKAAwiPMdrL-34" value="" style="edgeStyle=orthogonalEdgeStyle;rounded=0;orthogonalLoop=1;jettySize=auto;html=1;entryX=0;entryY=0.5;entryDx=0;entryDy=0;endArrow=none;" parent="1" source="Ma1VwflC6FKAAwiPMdrL-26" target="Ma1VwflC6FKAAwiPMdrL-30" edge="1">
          <mxGeometry relative="1" as="geometry">
            <mxPoint x="860" y="610" as="sourcePoint" />
            <mxPoint x="990" y="610" as="targetPoint" />
          </mxGeometry>
        </mxCell>
        <mxCell id="Ma1VwflC6FKAAwiPMdrL-28" value="Government Authority can at History" style="text;html=1;strokeColor=none;fillColor=none;spacing=5;spacingTop=-20;whiteSpace=wrap;overflow=hidden;rounded=0;" parent="1" vertex="1">
          <mxGeometry x="150" y="610" width="190" height="20" as="geometry" />
        </mxCell>
        <mxCell id="Ma1VwflC6FKAAwiPMdrL-35" value="" style="edgeStyle=orthogonalEdgeStyle;rounded=0;orthogonalLoop=1;jettySize=auto;html=1;entryX=0;entryY=0.5;entryDx=0;entryDy=0;endArrow=none;" parent="1" source="Ma1VwflC6FKAAwiPMdrL-21" target="Ma1VwflC6FKAAwiPMdrL-28" edge="1">
          <mxGeometry relative="1" as="geometry">
            <mxPoint x="140" y="610" as="sourcePoint" />
            <mxPoint x="320" y="610" as="targetPoint" />
          </mxGeometry>
        </mxCell>
        <mxCell id="Ma1VwflC6FKAAwiPMdrL-39" value="Upon &lt;b&gt;purchase&lt;/b&gt;, the agreement&lt;br&gt;of sale between the importer&lt;br&gt;and exporter is shared with import bank using a Smart Contract on&lt;br&gt;the Blockchain" style="text;html=1;strokeColor=none;fillColor=none;spacing=5;spacingTop=-20;whiteSpace=wrap;overflow=hidden;rounded=0;" parent="1" vertex="1">
          <mxGeometry x="120" y="670" width="190" height="80" as="geometry" />
        </mxCell>
        <mxCell id="Ma1VwflC6FKAAwiPMdrL-40" value="Upon &lt;b&gt;delivery&lt;/b&gt;, importer will&lt;br&gt;digitally acknowledge receipt&lt;br&gt;of goods and trigger payment" style="text;html=1;strokeColor=none;fillColor=none;spacing=5;spacingTop=-20;whiteSpace=wrap;overflow=hidden;rounded=0;" parent="1" vertex="1">
          <mxGeometry x="940" y="720" width="190" height="40" as="geometry" />
        </mxCell>
        <mxCell id="Ma1VwflC6FKAAwiPMdrL-41" value="In &lt;b&gt;real-time&lt;/b&gt;, the import bank will&lt;br&gt;have capability to review purchase&lt;br&gt;agreement, draft terms of credit&lt;br&gt;and submit obligation to pay to&lt;br&gt;export bank using smart contract " style="text;html=1;strokeColor=none;fillColor=none;spacing=5;spacingTop=-20;whiteSpace=wrap;overflow=hidden;rounded=0;" parent="1" vertex="1">
          <mxGeometry x="490" y="880" width="190" height="80" as="geometry" />
        </mxCell>
        <mxCell id="Ma1VwflC6FKAAwiPMdrL-44" style="edgeStyle=orthogonalEdgeStyle;rounded=0;orthogonalLoop=1;jettySize=auto;html=1;entryX=0.642;entryY=0;entryDx=0;entryDy=0;entryPerimeter=0;" parent="1" source="Ma1VwflC6FKAAwiPMdrL-43" target="Ma1VwflC6FKAAwiPMdrL-33" edge="1">
          <mxGeometry relative="1" as="geometry" />
        </mxCell>
        <mxCell id="Ma1VwflC6FKAAwiPMdrL-43" value="&lt;b&gt;Export bank&lt;/b&gt; will review the&lt;br&gt;provided payment obligation&lt;br&gt;and once approved, a Smart&lt;br&gt;Contract will be generated on&lt;br&gt;the Blockchain to cover terms &amp;amp;&lt;br&gt;conditions and lock-in obligations" style="text;html=1;strokeColor=none;fillColor=none;spacing=5;spacingTop=-20;whiteSpace=wrap;overflow=hidden;rounded=0;" parent="1" vertex="1">
          <mxGeometry x="520" y="520" width="180" height="90" as="geometry" />
        </mxCell>
        <mxCell id="dCvYJfYlRh3OtfU8dMbt-2" value="&lt;h1&gt;Defi Marketplace Diagram&lt;br&gt;&lt;/h1&gt;&lt;p&gt;&lt;br&gt;&lt;/p&gt;" style="text;html=1;strokeColor=none;fillColor=none;spacing=5;spacingTop=-20;whiteSpace=wrap;overflow=hidden;rounded=0;" parent="1" vertex="1">
          <mxGeometry x="160" y="890" width="160" height="100" as="geometry" />
        </mxCell>
        <mxCell id="dCvYJfYlRh3OtfU8dMbt-8" style="edgeStyle=orthogonalEdgeStyle;rounded=0;orthogonalLoop=1;jettySize=auto;html=1;exitX=1;exitY=0.5;exitDx=0;exitDy=0;entryX=0;entryY=0.5;entryDx=0;entryDy=0;" parent="1" source="dCvYJfYlRh3OtfU8dMbt-3" target="dCvYJfYlRh3OtfU8dMbt-5" edge="1">
          <mxGeometry relative="1" as="geometry" />
        </mxCell>
        <mxCell id="dCvYJfYlRh3OtfU8dMbt-3" value="UI-Inferface/ Dashbard of comany performance" style="rounded=1;whiteSpace=wrap;html=1;" parent="1" vertex="1">
          <mxGeometry x="190" y="1220" width="120" height="60" as="geometry" />
        </mxCell>
        <mxCell id="gnjgsBDGoZNJZgiNTWat-3" style="edgeStyle=orthogonalEdgeStyle;rounded=0;orthogonalLoop=1;jettySize=auto;html=1;entryX=0.2;entryY=-0.017;entryDx=0;entryDy=0;entryPerimeter=0;" edge="1" parent="1" source="dCvYJfYlRh3OtfU8dMbt-4" target="dCvYJfYlRh3OtfU8dMbt-3">
          <mxGeometry relative="1" as="geometry" />
        </mxCell>
        <mxCell id="dCvYJfYlRh3OtfU8dMbt-4" value="Signup/Login/ Forgot password" style="rounded=1;whiteSpace=wrap;html=1;" parent="1" vertex="1">
          <mxGeometry x="150" y="1120" width="130" height="60" as="geometry" />
        </mxCell>
        <mxCell id="dCvYJfYlRh3OtfU8dMbt-10" value="" style="edgeStyle=orthogonalEdgeStyle;rounded=0;orthogonalLoop=1;jettySize=auto;html=1;startArrow=none;" parent="1" source="gnjgsBDGoZNJZgiNTWat-4" edge="1">
          <mxGeometry relative="1" as="geometry">
            <mxPoint x="640" y="1085" as="targetPoint" />
          </mxGeometry>
        </mxCell>
        <mxCell id="dCvYJfYlRh3OtfU8dMbt-5" value="Onboarding details&amp;nbsp;&lt;br&gt;&lt;ul&gt;&lt;li&gt;&lt;span style=&quot;background-color: initial;&quot;&gt;Company info&lt;/span&gt;&lt;/li&gt;&lt;li&gt;&lt;span style=&quot;background-color: initial;&quot;&gt;Order Details&amp;nbsp;&lt;/span&gt;&lt;/li&gt;&lt;li&gt;&lt;span style=&quot;background-color: initial;&quot;&gt;Bank Details&lt;/span&gt;&lt;/li&gt;&lt;li&gt;&lt;span style=&quot;background-color: initial;&quot;&gt;Upload Documents&lt;/span&gt;&lt;/li&gt;&lt;/ul&gt;" style="rounded=1;whiteSpace=wrap;html=1;" parent="1" vertex="1">
          <mxGeometry x="330" y="1010" width="160" height="110" as="geometry" />
        </mxCell>
        <mxCell id="gnjgsBDGoZNJZgiNTWat-21" style="edgeStyle=orthogonalEdgeStyle;rounded=0;orthogonalLoop=1;jettySize=auto;html=1;entryX=-0.009;entryY=0.333;entryDx=0;entryDy=0;entryPerimeter=0;fontSize=12;" edge="1" parent="1" source="dCvYJfYlRh3OtfU8dMbt-12" target="gnjgsBDGoZNJZgiNTWat-20">
          <mxGeometry relative="1" as="geometry" />
        </mxCell>
        <mxCell id="dCvYJfYlRh3OtfU8dMbt-12" value="&lt;u&gt;CAM- Management&lt;/u&gt;&lt;br&gt;&lt;ul&gt;&lt;li&gt;Company info&lt;/li&gt;&lt;li&gt;Bank details&lt;/li&gt;&lt;li&gt;Financials&lt;/li&gt;&lt;li&gt;Complaints and litigations&lt;/li&gt;&lt;li&gt;Documents&lt;/li&gt;&lt;li&gt;Crypto Analysis&lt;/li&gt;&lt;li&gt;Director details&lt;/li&gt;&lt;li&gt;Share holding patterns&lt;/li&gt;&lt;li&gt;Key contact person&amp;nbsp;&lt;/li&gt;&lt;li&gt;Credit rating&amp;nbsp;&lt;/li&gt;&lt;li&gt;Address&lt;/li&gt;&lt;li&gt;&amp;nbsp;&lt;/li&gt;&lt;/ul&gt;" style="rounded=1;whiteSpace=wrap;html=1;" parent="1" vertex="1">
          <mxGeometry x="35" y="1610" width="405" height="220" as="geometry" />
        </mxCell>
        <mxCell id="gnjgsBDGoZNJZgiNTWat-33" style="edgeStyle=orthogonalEdgeStyle;rounded=0;orthogonalLoop=1;jettySize=auto;html=1;fontSize=12;" edge="1" parent="1" source="dCvYJfYlRh3OtfU8dMbt-23" target="gnjgsBDGoZNJZgiNTWat-31">
          <mxGeometry relative="1" as="geometry" />
        </mxCell>
        <mxCell id="dCvYJfYlRh3OtfU8dMbt-23" value="&lt;u&gt;Vessel details&lt;/u&gt;&lt;br&gt;Vessel information to the user according to requirement is provided about shipment type&amp;nbsp;&amp;nbsp;" style="rounded=1;whiteSpace=wrap;html=1;" parent="1" vertex="1">
          <mxGeometry x="125" y="2160" width="300" height="60" as="geometry" />
        </mxCell>
        <mxCell id="gnjgsBDGoZNJZgiNTWat-2" style="edgeStyle=orthogonalEdgeStyle;rounded=0;orthogonalLoop=1;jettySize=auto;html=1;entryX=0.5;entryY=0;entryDx=0;entryDy=0;" edge="1" parent="1" source="gnjgsBDGoZNJZgiNTWat-1" target="dCvYJfYlRh3OtfU8dMbt-4">
          <mxGeometry relative="1" as="geometry" />
        </mxCell>
        <mxCell id="gnjgsBDGoZNJZgiNTWat-1" value="Dashboard&amp;nbsp;" style="rounded=1;whiteSpace=wrap;html=1;" vertex="1" parent="1">
          <mxGeometry x="125" y="1040" width="120" height="60" as="geometry" />
        </mxCell>
        <mxCell id="gnjgsBDGoZNJZgiNTWat-4" value="The User will provide data for registration&amp;nbsp;" style="text;html=1;strokeColor=none;fillColor=none;align=center;verticalAlign=middle;whiteSpace=wrap;rounded=0;" vertex="1" parent="1">
          <mxGeometry x="530" y="1070" width="60" height="30" as="geometry" />
        </mxCell>
        <mxCell id="gnjgsBDGoZNJZgiNTWat-5" value="" style="edgeStyle=orthogonalEdgeStyle;rounded=0;orthogonalLoop=1;jettySize=auto;html=1;endArrow=none;" edge="1" parent="1" source="dCvYJfYlRh3OtfU8dMbt-5" target="gnjgsBDGoZNJZgiNTWat-4">
          <mxGeometry relative="1" as="geometry">
            <mxPoint x="490" y="1085" as="sourcePoint" />
            <mxPoint x="640" y="1085" as="targetPoint" />
          </mxGeometry>
        </mxCell>
        <mxCell id="gnjgsBDGoZNJZgiNTWat-10" style="edgeStyle=orthogonalEdgeStyle;rounded=0;orthogonalLoop=1;jettySize=auto;html=1;fontSize=16;" edge="1" parent="1" source="gnjgsBDGoZNJZgiNTWat-7" target="gnjgsBDGoZNJZgiNTWat-9">
          <mxGeometry relative="1" as="geometry" />
        </mxCell>
        <mxCell id="gnjgsBDGoZNJZgiNTWat-7" value="&lt;div&gt;&lt;u&gt;&lt;font style=&quot;font-size: 16px;&quot;&gt;Company Info&lt;/font&gt;&lt;/u&gt;&lt;/div&gt;&lt;div&gt;⦁&lt;span style=&quot;&quot;&gt;	&lt;/span&gt;Company info: information of registered company like eg- Company name , type of industry , ph no,&amp;nbsp;&lt;/div&gt;&lt;div&gt;⦁&lt;span style=&quot;&quot;&gt;	&lt;/span&gt;Unique identification of company CIN(Company identification number) , public or private and state it belongs&amp;nbsp;&lt;/div&gt;&lt;div&gt;⦁&lt;span style=&quot;&quot;&gt;	&lt;/span&gt;What is main business / Trade types&amp;nbsp;&amp;nbsp;&lt;/div&gt;&lt;div&gt;⦁&lt;span style=&quot;&quot;&gt;	&lt;/span&gt;Company turnover. Mode of communication&amp;nbsp;&lt;/div&gt;&lt;div&gt;&lt;br&gt;&lt;/div&gt;" style="rounded=1;whiteSpace=wrap;html=1;" vertex="1" parent="1">
          <mxGeometry x="627.5" y="965" width="205" height="200" as="geometry" />
        </mxCell>
        <mxCell id="gnjgsBDGoZNJZgiNTWat-11" style="edgeStyle=orthogonalEdgeStyle;rounded=0;orthogonalLoop=1;jettySize=auto;html=1;fontSize=16;" edge="1" parent="1" source="gnjgsBDGoZNJZgiNTWat-9" target="gnjgsBDGoZNJZgiNTWat-12">
          <mxGeometry relative="1" as="geometry">
            <mxPoint x="802.5" y="1400" as="targetPoint" />
          </mxGeometry>
        </mxCell>
        <mxCell id="gnjgsBDGoZNJZgiNTWat-9" value="&lt;div style=&quot;&quot;&gt;&lt;font style=&quot;font-size: 16px;&quot;&gt;&lt;u&gt;Order Details&lt;/u&gt;&lt;/font&gt;&lt;/div&gt;&lt;div style=&quot;font-size: 12px;&quot;&gt;&lt;font style=&quot;font-size: 12px;&quot;&gt;⦁&lt;span style=&quot;&quot;&gt;	&lt;/span&gt;It takes details of order with date specification qt type of item like eg-&amp;nbsp; commodity iron, qt 500 mt, order value USD&amp;nbsp;&lt;/font&gt;&lt;/div&gt;&lt;div style=&quot;font-size: 12px;&quot;&gt;&lt;font style=&quot;font-size: 12px;&quot;&gt;⦁&lt;span style=&quot;&quot;&gt;	&lt;/span&gt;% Grade requirement of order-&amp;nbsp; What percentage order is placed eg – 44-55 mt is 10 or 20%&amp;nbsp;&lt;/font&gt;&lt;/div&gt;&lt;div style=&quot;font-size: 12px;&quot;&gt;&lt;font style=&quot;font-size: 12px;&quot;&gt;⦁&lt;span style=&quot;&quot;&gt;	&lt;/span&gt;Supplier name , manufacturer name place of discharge&amp;nbsp;&lt;/font&gt;&lt;/div&gt;&lt;div style=&quot;font-size: 12px;&quot;&gt;&lt;font style=&quot;font-size: 12px;&quot;&gt;⦁&lt;span style=&quot;&quot;&gt;	&lt;/span&gt;Available capacity details&amp;nbsp; -its about available capacity of stock with company with daily consumption limit.&lt;/font&gt;&lt;/div&gt;&lt;div style=&quot;font-size: 12px;&quot;&gt;&lt;font style=&quot;font-size: 12px;&quot;&gt;⦁&lt;span style=&quot;&quot;&gt;	&lt;/span&gt;Shipment details to ship the order to the user or consumers.eg-laycant period and ETD (Expected time for delivery)&amp;nbsp;&lt;/font&gt;&lt;/div&gt;&lt;div style=&quot;font-size: 12px;&quot;&gt;&lt;br&gt;&lt;/div&gt;" style="rounded=1;whiteSpace=wrap;html=1;fontSize=16;" vertex="1" parent="1">
          <mxGeometry x="627.5" y="1200" width="350" height="160" as="geometry" />
        </mxCell>
        <mxCell id="gnjgsBDGoZNJZgiNTWat-14" style="edgeStyle=orthogonalEdgeStyle;rounded=0;orthogonalLoop=1;jettySize=auto;html=1;entryX=0.966;entryY=0.526;entryDx=0;entryDy=0;entryPerimeter=0;fontSize=16;" edge="1" parent="1" source="gnjgsBDGoZNJZgiNTWat-12" target="gnjgsBDGoZNJZgiNTWat-13">
          <mxGeometry relative="1" as="geometry" />
        </mxCell>
        <mxCell id="gnjgsBDGoZNJZgiNTWat-12" value="&lt;div style=&quot;&quot;&gt;&lt;u style=&quot;&quot;&gt;&lt;font style=&quot;font-size: 16px;&quot;&gt;Banking&amp;nbsp; Details&lt;/font&gt;&lt;/u&gt;&lt;/div&gt;&lt;div style=&quot;font-size: 12px;&quot;&gt;&lt;font style=&quot;font-size: 12px;&quot;&gt;⦁&lt;span style=&quot;&quot;&gt;	&lt;/span&gt;Banking Details: essential Baking details for transaction like&lt;/font&gt;&lt;/div&gt;&lt;div style=&quot;font-size: 12px;&quot;&gt;&lt;font style=&quot;font-size: 12px;&quot;&gt;&amp;nbsp; &amp;nbsp; &amp;nbsp; &amp;nbsp;Change detail- open and close&amp;nbsp;&lt;/font&gt;&lt;/div&gt;&lt;div style=&quot;font-size: 12px;&quot;&gt;&lt;font style=&quot;font-size: 12px;&quot;&gt;⦁&lt;span style=&quot;&quot;&gt;	&lt;/span&gt;Receipt and payment . Eg- Bank Branch name SBI , IFSC code, A/c no&lt;/font&gt;&lt;/div&gt;&lt;div style=&quot;font-size: 12px;&quot;&gt;&lt;br&gt;&lt;/div&gt;" style="rounded=1;whiteSpace=wrap;html=1;fontSize=16;" vertex="1" parent="1">
          <mxGeometry x="690.63" y="1390" width="223.75" height="160" as="geometry" />
        </mxCell>
        <mxCell id="gnjgsBDGoZNJZgiNTWat-18" style="edgeStyle=orthogonalEdgeStyle;rounded=0;orthogonalLoop=1;jettySize=auto;html=1;exitX=0;exitY=0.5;exitDx=0;exitDy=0;fontSize=12;" edge="1" parent="1" source="gnjgsBDGoZNJZgiNTWat-13" target="gnjgsBDGoZNJZgiNTWat-15">
          <mxGeometry relative="1" as="geometry" />
        </mxCell>
        <mxCell id="gnjgsBDGoZNJZgiNTWat-13" value="&lt;div style=&quot;&quot;&gt;&lt;u style=&quot;&quot;&gt;&lt;font style=&quot;font-size: 16px;&quot;&gt;Upload Doc&lt;/font&gt;&lt;/u&gt;&lt;/div&gt;&lt;div style=&quot;font-size: 12px;&quot;&gt;&lt;font style=&quot;font-size: 12px;&quot;&gt;⦁	Uploads Mandatory Docs:- Other related docs of user to be uploaded along with orders . Eg – certificate of incorporation , corporate identification num, Business Reg certificate, Unique identification number , financial year , Labor license no etc. with other docs.&amp;nbsp;&lt;/font&gt;&lt;/div&gt;" style="rounded=1;whiteSpace=wrap;html=1;fontSize=16;" vertex="1" parent="1">
          <mxGeometry x="310" y="1370" width="290" height="190" as="geometry" />
        </mxCell>
        <mxCell id="gnjgsBDGoZNJZgiNTWat-19" style="edgeStyle=orthogonalEdgeStyle;rounded=0;orthogonalLoop=1;jettySize=auto;html=1;entryX=0.25;entryY=0;entryDx=0;entryDy=0;fontSize=12;" edge="1" parent="1" source="gnjgsBDGoZNJZgiNTWat-15" target="dCvYJfYlRh3OtfU8dMbt-12">
          <mxGeometry relative="1" as="geometry" />
        </mxCell>
        <mxCell id="gnjgsBDGoZNJZgiNTWat-15" value="&lt;div style=&quot;font-size: 12px;&quot;&gt;&lt;font style=&quot;font-size: 12px;&quot;&gt;&lt;u&gt;Crypto Assets&lt;/u&gt;&lt;/font&gt;&lt;/div&gt;&lt;div style=&quot;font-size: 12px;&quot;&gt;&lt;font style=&quot;font-size: 12px;&quot;&gt;⦁&lt;span style=&quot;&quot;&gt;	&lt;/span&gt;Crypto user will input details regarding Crypto assets holding.&amp;nbsp;&amp;nbsp;&lt;/font&gt;&lt;/div&gt;&lt;div style=&quot;font-size: 12px;&quot;&gt;&lt;br&gt;&lt;/div&gt;" style="rounded=1;whiteSpace=wrap;html=1;fontSize=16;" vertex="1" parent="1">
          <mxGeometry x="50" y="1405" width="210" height="120" as="geometry" />
        </mxCell>
        <mxCell id="gnjgsBDGoZNJZgiNTWat-23" style="edgeStyle=orthogonalEdgeStyle;rounded=0;orthogonalLoop=1;jettySize=auto;html=1;entryX=0.5;entryY=0;entryDx=0;entryDy=0;fontSize=12;" edge="1" parent="1" source="gnjgsBDGoZNJZgiNTWat-20" target="gnjgsBDGoZNJZgiNTWat-22">
          <mxGeometry relative="1" as="geometry" />
        </mxCell>
        <mxCell id="gnjgsBDGoZNJZgiNTWat-20" value="&lt;u&gt;Order Management&lt;/u&gt;&amp;nbsp;&lt;br&gt;&lt;ul style=&quot;&quot;&gt;&lt;li style=&quot;&quot;&gt;Defi Market&lt;/li&gt;&lt;li style=&quot;&quot;&gt;Purchase Order&lt;/li&gt;&lt;li style=&quot;&quot;&gt;Document Approval&lt;/li&gt;&lt;/ul&gt;" style="rounded=1;whiteSpace=wrap;html=1;fontSize=12;" vertex="1" parent="1">
          <mxGeometry x="700" y="1570" width="220" height="120" as="geometry" />
        </mxCell>
        <mxCell id="gnjgsBDGoZNJZgiNTWat-25" style="edgeStyle=orthogonalEdgeStyle;rounded=0;orthogonalLoop=1;jettySize=auto;html=1;fontSize=12;" edge="1" parent="1" source="gnjgsBDGoZNJZgiNTWat-22" target="gnjgsBDGoZNJZgiNTWat-24">
          <mxGeometry relative="1" as="geometry" />
        </mxCell>
        <mxCell id="gnjgsBDGoZNJZgiNTWat-22" value="&lt;u&gt;Defi Market&lt;/u&gt;&lt;br&gt;Displays information about Defi-market place&amp;nbsp;&lt;br&gt;Smart Contract for marketplace" style="rounded=1;whiteSpace=wrap;html=1;fontSize=12;" vertex="1" parent="1">
          <mxGeometry x="570" y="1740" width="140" height="90" as="geometry" />
        </mxCell>
        <mxCell id="gnjgsBDGoZNJZgiNTWat-27" style="edgeStyle=orthogonalEdgeStyle;rounded=0;orthogonalLoop=1;jettySize=auto;html=1;fontSize=12;" edge="1" parent="1" source="gnjgsBDGoZNJZgiNTWat-24" target="gnjgsBDGoZNJZgiNTWat-26">
          <mxGeometry relative="1" as="geometry" />
        </mxCell>
        <mxCell id="gnjgsBDGoZNJZgiNTWat-24" value="&lt;u&gt;Purchase Order&lt;/u&gt;&lt;br&gt;User will place an order to purchase respective quantity at marketplace&amp;nbsp;" style="rounded=1;whiteSpace=wrap;html=1;fontSize=12;" vertex="1" parent="1">
          <mxGeometry x="560.31" y="1860" width="159.37" height="80" as="geometry" />
        </mxCell>
        <mxCell id="gnjgsBDGoZNJZgiNTWat-29" style="edgeStyle=orthogonalEdgeStyle;rounded=0;orthogonalLoop=1;jettySize=auto;html=1;fontSize=12;" edge="1" parent="1" source="gnjgsBDGoZNJZgiNTWat-26" target="gnjgsBDGoZNJZgiNTWat-28">
          <mxGeometry relative="1" as="geometry" />
        </mxCell>
        <mxCell id="gnjgsBDGoZNJZgiNTWat-26" value="&lt;u&gt;Documents&lt;/u&gt;&lt;br&gt;Documents for Approval of purchase order&lt;br&gt;Users will provide some of the valid documents for shipment&amp;nbsp;" style="rounded=1;whiteSpace=wrap;html=1;fontSize=12;" vertex="1" parent="1">
          <mxGeometry x="554.99" y="1980" width="170.01" height="80" as="geometry" />
        </mxCell>
        <mxCell id="gnjgsBDGoZNJZgiNTWat-32" style="edgeStyle=orthogonalEdgeStyle;rounded=0;orthogonalLoop=1;jettySize=auto;html=1;fontSize=12;" edge="1" parent="1" source="gnjgsBDGoZNJZgiNTWat-28" target="dCvYJfYlRh3OtfU8dMbt-23">
          <mxGeometry relative="1" as="geometry" />
        </mxCell>
        <mxCell id="gnjgsBDGoZNJZgiNTWat-28" value="&lt;u&gt;Shipping Management&lt;/u&gt;&lt;br&gt;&lt;ul style=&quot;&quot;&gt;&lt;li style=&quot;&quot;&gt;Vessel Information&lt;/li&gt;&lt;li style=&quot;&quot;&gt;Insurance&amp;nbsp;&lt;/li&gt;&lt;li style=&quot;&quot;&gt;inspection of commodity report&lt;/li&gt;&lt;li style=&quot;&quot;&gt;Bl generation&lt;/li&gt;&lt;/ul&gt;" style="rounded=1;whiteSpace=wrap;html=1;fontSize=12;" vertex="1" parent="1">
          <mxGeometry x="120" y="1956.5" width="190" height="113.5" as="geometry" />
        </mxCell>
        <mxCell id="gnjgsBDGoZNJZgiNTWat-35" style="edgeStyle=orthogonalEdgeStyle;rounded=0;orthogonalLoop=1;jettySize=auto;html=1;fontSize=12;" edge="1" parent="1" source="gnjgsBDGoZNJZgiNTWat-31" target="gnjgsBDGoZNJZgiNTWat-34">
          <mxGeometry relative="1" as="geometry" />
        </mxCell>
        <mxCell id="gnjgsBDGoZNJZgiNTWat-31" value="&lt;u&gt;Insurance&lt;/u&gt;&amp;nbsp;&lt;br&gt;&lt;ul&gt;&lt;li&gt;Insurance details&amp;nbsp;&lt;/li&gt;&lt;li&gt;Voyage details&lt;/li&gt;&lt;li&gt;Package details&lt;/li&gt;&lt;li&gt;Tax invoice details&lt;/li&gt;&lt;li&gt;Documents&amp;nbsp;&lt;/li&gt;&lt;/ul&gt;" style="rounded=1;whiteSpace=wrap;html=1;fontSize=12;" vertex="1" parent="1">
          <mxGeometry x="125" y="2290" width="270" height="130" as="geometry" />
        </mxCell>
        <mxCell id="gnjgsBDGoZNJZgiNTWat-39" style="edgeStyle=orthogonalEdgeStyle;rounded=0;orthogonalLoop=1;jettySize=auto;html=1;entryX=0.5;entryY=0;entryDx=0;entryDy=0;fontSize=12;" edge="1" parent="1" source="gnjgsBDGoZNJZgiNTWat-34" target="gnjgsBDGoZNJZgiNTWat-38">
          <mxGeometry relative="1" as="geometry" />
        </mxCell>
        <mxCell id="gnjgsBDGoZNJZgiNTWat-34" value="&lt;u&gt;Inspection of Commodity&lt;/u&gt;&lt;br&gt;Documents related to inspection of commodity is uploaded&amp;nbsp;" style="rounded=1;whiteSpace=wrap;html=1;fontSize=12;" vertex="1" parent="1">
          <mxGeometry x="670" y="2310" width="170" height="90" as="geometry" />
        </mxCell>
        <mxCell id="gnjgsBDGoZNJZgiNTWat-38" value="&lt;u&gt;Bl Generation&lt;/u&gt;&lt;br&gt;After all process final Bill is generated for shipment&amp;nbsp;" style="rounded=1;whiteSpace=wrap;html=1;fontSize=12;" vertex="1" parent="1">
          <mxGeometry x="695" y="2520" width="120" height="60" as="geometry" />
        </mxCell>
      </root>
    </mxGraphModel>
  </diagram>
</mxfile>
